<svg id="Gradient" height="512" viewBox="0 0 512 512" width="512" xmlns="http://www.w3.org/2000/svg" xmlns:xlink="http://www.w3.org/1999/xlink"><linearGradient id="linear-gradient" gradientUnits="userSpaceOnUse" x1="256" x2="256" y1="440" y2="72"><stop offset="0" stop-color="#27c1e6"/><stop offset=".5" stop-color="#c275e9"/><stop offset="1" stop-color="#f2515d"/></linearGradient><path d="m472 136h-81.754l-11.455-45.82a23.965 23.965 0 0 0 -23.281-18.18h-87.02a23.965 23.965 0 0 0 -23.281 18.18l-11.455 45.82h-73.754v-24a8 8 0 0 0 -8-8h-96a8 8 0 0 0 -8 8v24h-8a24.028 24.028 0 0 0 -24 24v256a24.028 24.028 0 0 0 24 24h432a24.028 24.028 0 0 0 24-24v-256a24.028 24.028 0 0 0 -24-24zm8 24v40h-81.356l-5.644-48h79a8.009 8.009 0 0 1 8 8zm-103.114-8 4.487 38.136a119.774 119.774 0 0 0 -138.746 0l4.487-38.136zm-64.886 32a104 104 0 1 1 -104 104 104.118 104.118 0 0 1 104-104zm-51.27-89.939a7.989 7.989 0 0 1 7.76-6.061h87.02a7.989 7.989 0 0 1 7.76 6.061l10.484 41.939h-123.508zm-116.73 25.939v16h-48v-16zm-80 0h16v16h-16zm-24 32h191l-5.647 48h-57.353a23.992 23.992 0 0 1 -24-24 8 8 0 0 0 -8-8h-104v-8a8.009 8.009 0 0 1 8-8zm-8 264v-232h96v240h-88a8.009 8.009 0 0 1 -8-8zm440 8h-328v-215.993a39.707 39.707 0 0 0 24 7.993h48.061a120 120 0 1 0 191.878 0h72.061v200a8.009 8.009 0 0 1 -8 8zm-160-48a88 88 0 1 0 -88-88 88.1 88.1 0 0 0 88 88zm0-160a72 72 0 1 1 -72 72 72.081 72.081 0 0 1 72-72zm0 120a48 48 0 1 0 -48-48 48.054 48.054 0 0 0 48 48zm0-80a32 32 0 1 1 -32 32 32.036 32.036 0 0 1 32-32zm-8 32a8 8 0 1 1 8 8 8 8 0 0 1 -8-8z" fill="url(#linear-gradient)"/></svg>